<?xml version="1.0" encoding="utf-8"?>
<!-- Generator: Adobe Illustrator 25.0.0, SVG Export Plug-In . SVG Version: 6.00 Build 0)  -->
<svg version="1.1" id="Calque_1" xmlns="http://www.w3.org/2000/svg" xmlns:xlink="http://www.w3.org/1999/xlink" x="0px" y="0px"
	 viewBox="0 0 500 286.5" style="enable-background:new 0 0 500 286.5;" xml:space="preserve">
<style type="text/css">
	.st0{fill:#1C99D2;}
	.st1{fill:#124F90;}
	.st2{fill:#DB465D;}
	.st3{fill:#0A7E82;}
	.st4{fill:#E85215;}
	.st5{fill:#54AF48;}
	.st6{fill:#E8AC5A;}
	.st7{fill:#57B582;}
	.st8{fill:#DED120;}
	.st9{fill:#134E91;}
</style>
<g>
	<g>
		<path class="st0" d="M389.9,148.8c0,0,0-0.1,0-0.1c-0.1-0.9-0.3-1.9-0.5-2.8c-1.5-6.7-5.3-12.7-10.7-16.9c0,0-0.1-0.1-0.2-0.1
			c0,0-0.1-0.1-0.1-0.1c-2-1.3-4.2-2.4-6.7-3.1c-4.1-1.3-8.4-1.7-12.9-1c-4.5,0.6-8.8,2.2-12.8,4.8c-6.5,4-10.8,9.6-13.1,16.6
			c-0.9,2.8-1.4,5.6-1.4,8.3c0,0,0,0,0,0.1c0,0.9,0.1,1.9,0.1,2.8c1.4,21.5,10.4,54.7,10.4,54.7s41.9-35.3,46.7-50.8
			C390.1,157,390.4,152.8,389.9,148.8z M351.3,137.9c3.1-2.1,7-2.5,11.7-1c2.6,0.8,4.8,2,6.7,3.8c0.3,0.2,0.5,0.5,0.8,0.7
			c0.4,0.4,0.7,0.8,1.1,1.2c0.2,0.2,0.3,0.4,0.5,0.6c0.2,0.2,0.3,0.4,0.5,0.7c0.2,0.3,0.4,0.6,0.6,0.9c3,4.7,3.7,9.6,2.1,14.8
			c-1,3.2-2.7,5.5-5.2,7.1c-3.2,2.2-7.1,2.5-11.7,1.1c-4.2-1.3-7.5-3.9-9.9-7.7c-2.1-3.4-3.1-6.8-3-10.4c0-0.2,0-0.5,0-0.7
			c0,0,0-0.1,0-0.1c0-0.3,0.1-0.7,0.1-1.1c0.1-0.9,0.3-1.8,0.6-2.7C347.3,141.8,349,139.4,351.3,137.9z"/>
		<path class="st1" d="M80.6,102.3c-0.1-1.9,0.5-3.8,1.9-5.7c1.6-2.3,3.6-3.6,6-3.7c0.8,0,1.4,0.1,2,0.5c6,3.2,12.8,4.6,20.3,4.2
			c2.4-0.1,4.8-0.5,7-1.2c2.3-0.7,3.8-1.5,4.6-2.5c0.4-0.5,0.5-1.4,0.4-2.7c-0.1-2.6-1.3-4.8-3.5-6.4c-2.2-1.7-4.8-2.8-7.7-3.4
			c-1.2-0.3-3.9-0.6-8.1-1.1c-4.2-0.5-7.4-1.2-9.7-2c-2.2-0.7-4.1-1.7-5.8-3c-4.4-3.3-6.8-7.6-7-12.9c-0.2-4.5,0.8-8.6,3.2-12
			c2.4-3.5,5.4-6.2,9-8c3.4-1.7,7-2.7,10.6-2.9c6.5-0.3,14,1.2,22.8,4.6c1.4,0.6,2.1,1.7,2.2,3.4c0.1,1.9-0.6,3.8-2,5.8
			c-1.6,2.3-3.6,3.6-5.9,3.7c-0.6,0-1.1,0-1.6-0.2c-7.7-3-14.1-4.4-19.4-4.1c-4.3,0.2-6.6,1.1-7,2.7c-0.1,0.4-0.1,0.9-0.1,1.5
			c0.1,2.6,1.5,4.8,4,6.6c1.5,1.2,3.4,2.1,5.7,2.6c2.2,0.5,4.9,1,8.1,1.3c3.2,0.4,5.6,0.7,7.3,1.1c10.7,2.4,16.3,8.2,16.8,17.4
			c0.3,5.1-1,9.6-3.9,13.4c-2.9,3.8-6.4,6.7-10.6,8.7c-3.8,1.7-8.2,2.8-13.2,3c-9.1,0.5-17.2-1.2-24.4-5
			C81.3,105.1,80.7,104,80.6,102.3z"/>
		<path class="st1" d="M182,50.9c1.2-0.1,2.1,0.3,2.8,1c0.7,0.7,1.1,1.7,1.2,2.9l2.3,42.7c0.1,2-0.5,3.9-1.9,5.8
			c-1.6,2.3-3.6,3.6-6,3.7c-1.2,0.1-2.1-0.3-2.8-1c-0.7-0.7-1.1-1.7-1.2-2.9l-0.1-1.8c-4.5,4-9.4,6.1-14.7,6.4
			c-4.3,0.2-8.2-0.9-11.4-3.3c-4.3-3.3-6.6-7.7-6.9-13.2l-1.6-29c-0.1-1.9,0.6-3.7,2-5.7c1.6-2.3,3.6-3.6,5.9-3.7
			c1.2-0.1,2.1,0.3,2.8,1c0.7,0.7,1.1,1.7,1.2,2.9l1.6,29c0.2,2.9,1.4,5.2,3.8,6.9c1.9,1.4,4.1,2.1,6.5,2c4.1-0.2,7-2.2,8.6-6
			c0.9-1.8,1.2-4,1.1-6.5l-1.2-21.6c-0.1-1.9,0.6-3.7,2-5.7C177.8,52.2,179.7,51,182,50.9z"/>
		<path class="st1" d="M196.8,43.7c-1.6-1.4-2.4-3.2-2.6-5.4c-0.1-2.2,0.5-4.1,2-5.6c1.4-1.6,3.2-2.4,5.4-2.6c2.2-0.1,4.1,0.5,5.6,2
			c1.6,1.4,2.4,3.2,2.6,5.4c0.1,2.2-0.5,4.1-2,5.6c-1.4,1.6-3.2,2.4-5.4,2.6C200.2,45.7,198.4,45.1,196.8,43.7z M203.4,105.6
			c-1.2,0.1-2.1-0.3-2.8-1c-0.7-0.7-1.1-1.7-1.2-2.9L197.2,59c-0.1-1.9,0.6-3.7,2-5.7c1.6-2.3,3.6-3.6,5.9-3.7
			c1.2-0.1,2.1,0.3,2.8,1c0.7,0.7,1.1,1.7,1.2,2.9l2.3,42.7c0.1,2-0.5,3.9-1.9,5.8C207.8,104.2,205.8,105.4,203.4,105.6z"/>
		<path class="st1" d="M218.8,94.8c-0.1-1.9,0.5-3.8,1.9-5.7c1.6-2.3,3.6-3.6,6-3.7c0.8,0,1.4,0.1,2,0.5c6,3.2,12.8,4.6,20.3,4.2
			c2.4-0.1,4.8-0.5,7-1.2c2.3-0.7,3.8-1.5,4.6-2.5c0.4-0.5,0.5-1.4,0.4-2.7c-0.1-2.6-1.3-4.8-3.5-6.4c-2.2-1.7-4.8-2.8-7.7-3.4
			c-1.2-0.3-3.9-0.6-8.1-1.1c-4.2-0.5-7.4-1.2-9.7-2c-2.2-0.7-4.1-1.7-5.8-3c-4.4-3.3-6.8-7.6-7-12.9c-0.2-4.5,0.8-8.6,3.2-12
			c2.4-3.5,5.4-6.2,9-8c3.4-1.7,7-2.7,10.6-2.9c6.5-0.3,14,1.2,22.8,4.6c1.4,0.6,2.1,1.7,2.2,3.4c0.1,1.9-0.6,3.8-2,5.8
			c-1.6,2.3-3.6,3.6-5.9,3.7c-0.6,0-1.1,0-1.6-0.2c-7.7-3-14.1-4.4-19.4-4.1c-4.3,0.2-6.6,1.1-7,2.7c-0.1,0.4-0.1,0.9-0.1,1.5
			c0.1,2.6,1.5,4.8,4,6.6c1.5,1.2,3.4,2.1,5.7,2.6c2.2,0.5,4.9,1,8.1,1.3c3.2,0.4,5.6,0.7,7.3,1.1c10.7,2.4,16.3,8.2,16.8,17.4
			c0.3,5.1-1,9.6-3.9,13.4c-2.9,3.8-6.4,6.7-10.6,8.7c-3.8,1.7-8.2,2.8-13.2,3c-9.1,0.5-17.2-1.2-24.4-5
			C219.6,97.6,218.9,96.5,218.8,94.8z"/>
		<path class="st1" d="M321.1,82.8c1.1-0.1,2.1,0.3,2.8,1c0.7,0.7,1.1,1.7,1.2,2.9c0.1,1.4-0.3,2.9-1.2,4.3c-0.8,1.5-1.9,2.6-3,3.5
			c-4.7,3.5-9.7,5.3-15.2,5.6c-6.2,0.3-11.7-1.4-16.6-5.1c-6.2-4.7-9.5-11-10-19.1c-0.4-7.2,1.7-13.7,6.2-19.6
			c2.7-3.7,6.1-6.7,10-8.8c3.9-2.1,7.9-3.3,12.1-3.5c5-0.3,9.6,0.8,13.9,3.3c1.2,0.6,1.8,1.8,1.9,3.4c0.1,1.9-0.6,3.7-2,5.7
			c-1.6,2.3-3.6,3.6-5.9,3.7c-0.8,0-1.5-0.1-2.1-0.5c-3.1-1.8-6.4-2.5-9.7-2.4c-4.8,0.3-8.2,1.9-10.3,4.9c-1.6,2.2-2.3,4.9-2.2,8.2
			c0.3,5.2,2.6,9.5,7,12.8c3.5,2.6,7.4,3.8,11.6,3.6c3.1-0.2,5.7-1,7.8-2.5C318.8,83.3,320,82.8,321.1,82.8z"/>
		<path class="st1" d="M330.7,73.1c-0.4-7.2,1.7-13.7,6.2-19.6c2.7-3.7,6.1-6.7,10-8.8c3.9-2.1,7.9-3.3,12.1-3.5
			c6.3-0.3,11.8,1.3,16.6,5c6.2,4.7,9.5,11.1,10,19c0.4,7.2-1.7,13.7-6.2,19.8c-2.7,3.7-6,6.7-9.9,8.8c-3.9,2.1-7.9,3.3-12,3.5
			c-6.2,0.3-11.7-1.4-16.6-5.1C334.5,87.5,331.2,81.2,330.7,73.1z M342.5,67.6c0.3,5.2,2.6,9.5,7,12.8c3.5,2.6,7.4,3.8,11.6,3.6
			c4.7-0.3,8.1-1.9,10.2-5c1.7-2.3,2.4-5,2.2-8.2c-0.3-5.2-2.6-9.5-6.9-12.7c-3.5-2.6-7.4-3.8-11.7-3.6c-4.8,0.3-8.2,1.9-10.3,4.9
			C343.1,61.6,342.4,64.3,342.5,67.6z"/>
		<g>
			<g>
				<path class="st1" d="M17,159.7c-0.8-1.9-0.8-4.2,0.2-6.8c0.9-2.6,2.3-4.3,4-5c1.1-0.5,2.1-0.5,3.1-0.1c1,0.4,1.7,1.2,2.2,2.3
					l6.9,16l14.3-6.2c1.1-0.5,2.1-0.5,3-0.1c0.9,0.4,1.6,1.2,2.1,2.3c0.8,1.9,0.8,4.2-0.2,6.8c-0.9,2.6-2.3,4.3-4,5l-9.9,4.3
					l3.3,7.4c1.3,3,3,5.7,5,8.1c2,2.4,4.1,3.9,6.2,4.5c1.6,0.5,3.3,0.4,4.9-0.3c0.5-0.2,1.1-0.5,1.5-0.8c0.5-0.3,0.8-0.5,1.1-0.7
					c0.2-0.2,0.6-0.5,1-0.9c0.4-0.4,0.7-0.7,0.8-0.8c0.1-0.1,0.3-0.5,0.9-1.1c0.5-0.6,0.8-1,0.9-1.1c0.7-1,1.6-1.7,2.6-2.1
					c1.1-0.5,2.1-0.5,3.1-0.1c1,0.4,1.7,1.2,2.2,2.3c0.6,1.4,0.8,3.1,0.4,5c-0.4,1.9-1,3.5-2,4.7c-3.9,4.9-7.8,8.2-11.5,9.8
					c-6.7,2.9-13.1,1.2-19.2-5.2c-3-3.3-5.5-7.2-7.4-11.7l-5.2-12l-0.7,0.3c-1.1,0.5-2.1,0.5-3.1,0.1c-1-0.4-1.7-1.2-2.2-2.3
					c-0.6-1.3-0.7-2.9-0.5-4.6c0.3-1.8,0.8-3.3,1.7-4.5L17,159.7z"/>
				<path class="st2" d="M85.8,201.3c-1.1,0.4-2.1,0.3-3-0.2c-0.9-0.5-1.5-1.3-1.9-2.5l-12.7-38.8c-0.6-1.8-0.4-3.9,0.5-6.2
					c1-2.7,2.6-4.5,4.8-5.2c1.9-0.6,3.3-0.1,4.3,1.4c3.5-5.1,7.9-8.6,13.3-10.3c4.5-1.5,8.8-1.4,12.9,0.3c1.1,0.5,1.8,1.4,2.3,2.8
					c0.6,1.9,0.5,3.9-0.4,6.1c-1,2.7-2.6,4.5-4.9,5.2c-0.9,0.3-1.7,0.2-2.5-0.1c-2.7-1-5.3-1.1-7.7-0.3c-3.2,1.1-5.4,2.9-6.5,5.7
					c-1.1,2.9-1.1,6.1,0,9.6l6.9,21c0.6,1.9,0.5,4-0.3,6.2C89.7,198.8,88.1,200.5,85.8,201.3z"/>
				<path class="st3" d="M162.9,192.8c0.5,2,0,4.3-1.4,6.7c-1.4,2.4-3.1,3.8-4.9,4.2c-1,0.2-1.9,0.1-2.7-0.3
					c-0.8-0.4-1.4-1.1-1.7-1.9c-3.2,2.9-6.8,4.7-10.8,5.6c-5.3,1.2-10.1,1-14.3-0.7c-4.2-1.6-6.9-4.9-8-9.9
					c-0.9-4.2-0.3-8.5,1.9-12.7c1.6-3,3.6-5.4,6.2-7.4c2.5-2,5.8-3.7,9.8-5.3c3.6-1.4,5.8-2.6,6.6-3.5c-1.1-1.4-2.6-2.5-4.4-3.1
					c-1.8-0.7-3.7-0.8-5.7-0.3c-3.3,0.7-6.3,2.3-9.1,4.7c-0.9,0.8-1.9,1.3-3,1.6c-1.2,0.3-2.1,0.1-3-0.5c-0.8-0.6-1.4-1.5-1.7-2.7
					c-0.3-1.5-0.1-3.1,0.6-4.9c0.7-1.8,1.6-3.2,2.7-4.2c4.2-3.9,9.3-6.5,15.2-7.8c5.1-1.1,9.6-0.4,13.6,2.1c4,2.5,6.5,6.3,7.7,11.4
					L162.9,192.8z M143,193c0.4-0.1,0.9-0.2,1.3-0.3c0.4-0.1,0.8-0.2,1-0.3c0.3-0.1,0.6-0.2,0.9-0.5c0.3-0.2,0.5-0.3,0.7-0.4
					c0.1-0.1,0.3-0.2,0.6-0.5c0.3-0.3,0.5-0.5,0.5-0.5c0,0,0.2-0.3,0.6-0.7c0.4-0.4,0.6-0.7,0.6-0.7l-2.2-10.1
					c-2.4,2-5.7,3.9-10,5.6c-3.7,1.5-6,2.8-7,3.9l0.1,0.6c0.5,2.2,2,3.7,4.5,4.2C137.2,193.7,140,193.7,143,193z"/>
				<path class="st4" d="M178.5,177.5c-1.2,0.1-2.1-0.1-2.9-0.8c-0.8-0.7-1.2-1.6-1.4-2.9l-5.1-43.6c-0.2-1.9,0.3-3.9,1.7-5.9
					c1.5-2.5,3.4-3.9,5.8-4.1c1.2-0.1,2.1,0.1,2.9,0.8c0.8,0.7,1.2,1.6,1.4,2.9l0.2,1.8c4.3-4.3,9.1-6.7,14.7-7.4
					c4.5-0.5,8.5,0.4,12,2.7c4.4,3,7,7.4,7.7,13l3.5,29.6c0.2,2-0.3,4-1.6,6c-1.5,2.5-3.4,3.9-5.9,4.1c-1.2,0.1-2.1-0.1-2.9-0.8
					c-0.8-0.7-1.2-1.6-1.4-2.9l-3.5-29.7c-0.3-2.9-1.8-5.1-4.3-6.7c-2.1-1.4-4.4-2-6.7-1.7c-4.1,0.5-6.9,2.8-8.4,6.8
					c-0.8,2.1-1.1,4.3-0.8,6.6l2.6,22c0.2,2-0.3,4-1.6,6C182.9,175.8,180.9,177.2,178.5,177.5z"/>
				<path class="st5" d="M223.7,184.2c0-2,0.7-4,2.2-5.8c1.7-2.3,3.8-3.5,6.2-3.5c0.7,0,1.4,0.2,2.1,0.7c4,2.4,8.8,3.5,14.6,3.4
					c2.9,0,5.2-0.5,6.9-1.4l0-0.5c0-1.7-0.8-3.1-2.2-4.3c-1.7-1.4-4.8-2.5-9.3-3.2c-4.5-0.7-7.5-1.4-9.1-2c-1.8-0.7-3.3-1.6-4.7-2.7
					c-3.4-2.8-5.1-6.3-5.2-10.7c-0.1-3.8,1-7.2,3.3-10.2c2.2-3,4.9-5.3,8.1-6.8c2.8-1.2,5.7-1.9,8.7-1.9c5.3-0.1,11.1,1.3,17.3,4.1
					c1.5,0.6,2.2,1.9,2.2,3.7c0,1.9-0.7,3.8-2.3,5.7c-1.7,2.3-3.8,3.5-6.1,3.5c-0.5,0-1.1-0.1-1.8-0.4c-5.3-2.3-10-3.5-13.8-3.4
					c-1,0-2.1,0.2-3.2,0.5c0.2,1.5,1,2.9,2.4,4.1c1.7,1.4,4.9,2.4,9.5,3.1c6.3,1,10.8,2.6,13.5,4.8c3.3,2.6,5,6.3,5.1,10.8
					c0.1,4.3-1.2,8.1-3.9,11.4c-2.7,3.3-5.8,5.6-9.3,7.1c-3.3,1.3-6.8,2-10.6,2c-7.1,0.1-13.3-1.5-18.8-4.7
					C224.3,186.9,223.7,185.7,223.7,184.2z"/>
				<path class="st6" d="M278.9,192.2c-1.2-0.1-2.1-0.6-2.7-1.4c-0.6-0.8-0.9-1.8-0.8-3.1l5.3-63.7c0.2-1.9,1.1-3.7,2.8-5.5
					c2-2.1,4.1-3.1,6.5-2.9c1.8,0.2,3,1.1,3.4,2.9c4.2-1.4,8.2-2,11.9-1.7c5.2,0.4,9.6,2.5,13.2,6.1c5.7,5.6,8.1,12.8,7.4,21.7
					c-0.7,7.9-3.8,14.7-9.3,20.2c-3.5,3.5-7.3,5.8-11.3,7.2c-3.3,1.1-6.4,1.5-9.5,1.3c-1.6-0.1-3.9-0.7-6.7-1.5l-1,11.9
					c-0.2,2-1.1,3.9-2.7,5.6C283.5,191.4,281.3,192.4,278.9,192.2z M313.1,148.8c0.4-4.5-0.7-8.7-3.3-12.6c-2.6-3.9-6-6-10.3-6.4
					c-2.7-0.2-5,0-6.9,0.8l-2.1,25.7c0.8,0.2,1.3,0.4,1.6,0.6c2.8,2.1,6,3.4,9.6,3.7c3.1,0.3,5.7-0.6,7.7-2.6
					C311.6,155.7,312.8,152.7,313.1,148.8z"/>
				<path class="st7" d="M384.1,215.4c-1.1-0.3-1.9-0.9-2.4-1.9c-0.5-0.9-0.5-2-0.2-3.2l11.3-39.2c0.5-1.8,1.8-3.4,3.8-4.8
					c2.3-1.7,4.6-2.2,6.9-1.6c1.9,0.5,2.8,1.7,2.8,3.6c5.8-2.3,11.4-2.7,16.8-1.1c4.5,1.3,8,3.8,10.5,7.5c0.6,1,0.7,2.2,0.3,3.6
					c-0.5,1.9-1.8,3.5-3.8,4.9c-2.3,1.7-4.7,2.2-7,1.6c-0.9-0.3-1.6-0.8-2-1.5c-1.7-2.3-3.7-3.8-6.3-4.6c-3.3-0.9-6.1-0.6-8.6,1
					c-2.5,1.7-4.3,4.4-5.4,8l-6.1,21.3c-0.6,2-1.8,3.6-3.8,4.9C388.7,215.5,386.4,216.1,384.1,215.4z"/>
				<path class="st8" d="M459.1,142.1c0.7-2,2.3-3.6,4.8-4.8c2.5-1.2,4.6-1.5,6.4-0.8c1.1,0.4,1.9,1.1,2.3,2.1c0.4,1,0.4,2,0,3.1
					l-6,16.3l14.6,5.4c1.1,0.4,1.9,1.1,2.2,2c0.4,0.9,0.4,2-0.1,3.2c-0.7,2-2.3,3.6-4.8,4.8c-2.5,1.2-4.6,1.5-6.4,0.8l-10.1-3.8
					l-2.7,7.6c-1.1,3.1-1.8,6.2-2,9.3c-0.2,3.1,0.3,5.7,1.4,7.5c0.8,1.5,2.1,2.6,3.8,3.2c0.6,0.2,1.1,0.4,1.6,0.5
					c0.5,0.1,1,0.2,1.3,0.3c0.3,0,0.8,0.1,1.4,0c0.6,0,1,0,1.1-0.1c0.1,0,0.6-0.1,1.4-0.2c0.8-0.1,1.3-0.2,1.4-0.2
					c1.2-0.2,2.3-0.1,3.4,0.3c1.1,0.4,1.9,1.1,2.3,2.1c0.4,1,0.4,2,0,3.1c-0.5,1.5-1.6,2.8-3.2,3.9c-1.6,1.1-3.1,1.8-4.7,2
					c-6.3,0.8-11.3,0.5-15.1-0.9c-6.8-2.5-10.2-8.2-10.3-17c0.1-4.5,1-9,2.7-13.6l4.5-12.3l-0.7-0.3c-1.1-0.4-1.9-1.1-2.3-2.1
					c-0.4-1-0.4-2,0-3.1c0.5-1.4,1.5-2.6,2.9-3.7c1.4-1.1,2.8-1.8,4.3-2.1L459.1,142.1z"/>
			</g>
		</g>
		<g>
			<path class="st0" d="M353.3,151.5c0,0,1.2,11.6,11.6,5.1L353.3,151.5z"/>
			<path class="st0" d="M355.4,147.9L355.4,147.9c-0.2-0.6,0.1-1.3,0.7-1.6l0,0c0.6-0.2,1.3,0.1,1.6,0.7l0,0
				c0.2,0.6-0.1,1.3-0.7,1.6v0C356.3,148.8,355.6,148.5,355.4,147.9z"/>
			
				<rect x="365.5" y="151" transform="matrix(0.3628 0.9319 -0.9319 0.3628 375.4662 -244.7587)" class="st0" width="2.4" height="2.4"/>
		</g>
	</g>
	<path class="st9" d="M56.2,259c11.3-4.6,22.7-8.4,34.3-12c5.8-1.7,11.6-3.4,17.5-5c5.9-1.5,11.7-3.2,17.6-4.5
		c5.9-1.3,11.8-2.7,17.8-4l17.9-3.5l18-2.8l4.5-0.7l4.5-0.6l9.1-1.1l9.1-1.1c3-0.4,6.1-0.6,9.1-0.9c6.1-0.6,12.2-1.2,18.2-1.7
		c12.2-0.5,24.4-1.1,36.7,0c6.1,0.5,12.2,0.8,18.3,1.6c6.1,0.9,12.1,1.8,18.1,2.8l4.5,0.8c1.5,0.3,3,0.5,4.5,0.9l8.9,2.2
		c5.7,1.5,11.3,3,16.9,4.8c0.4,0.1,0.7,0.6,0.6,1l0,0c-0.1,0.4-0.4,0.7-0.9,0.8c-5.9,0.3-11.7,0.3-17.5,0.3l-9-0.2
		c-3-0.1-6,0.1-9,0.1c-6,0.1-12,0-18-0.1l-2.2,0l-2.2,0l-4.5,0.1l-8.9,0.1c-6,0-11.9-0.1-17.9,0c-6,0.1-11.9,0-17.9-0.2
		c-6,0-11.9,0.1-17.9,0.1c-3,0.1-6,0-9,0.2l-9,0.5c-23.9,1.4-47.7,4.1-71.4,8c-5.9,0.9-11.8,2.1-17.8,3.1
		c-5.9,1.1-11.8,2.4-17.7,3.6c-5.9,1.4-11.7,2.6-17.6,4.2c-2.9,0.7-5.8,1.5-8.7,2.2c-2.9,0.8-5.8,1.6-8.7,2.5L56.2,259z"/>
</g>
</svg>
